# xmcd
# Track frame offsets:
# 150
# 19138
# 33957
# 46381
# 62862
# 75620
# 90270
# 110442
# 123136
# 143872
# 154887
# 168890
# 180563
# 195638
# 209199
# 222647
# 234269
# 246269
# 259496
# 270336
#
# Disc length: 3771 seconds
# Revision: 0
# Processed by: cddbd v1.4PL0 Copyright (c) Steve Scherf et al.
# Submitted via: VisiTrax 2.9.5.181 - For more info visit www.synapsa.com
#
DISCID=1a0eb914
DTITLE=Conway Twitty - Conwat Twitty Greatest Hits
DYEAR=2003
DGENRE=
TTITLE0=Don't Cry Joni
TTITLE1=Georgia Keeps Pulling On My Ring
TTITLE2=I've Already Loved You In My Mind
TTITLE3=Don't Take It Away
TTITLE4=I May Never Get To Heaven
TTITLE5=I'd Love To Lay You Down
TTITLE6=Rest Your Love On Me
TTITLE7=Tight Fittin' Jeans
TTITLE8=Red Neckin' Love Makin' Night
TTITLE9=Hello Darlin'
TTITLE10=Fifteen Years Ago
TTITLE11=I Can't See Me Without You
TTITLE12=On Your Last Date
TTITLE13=Baby's Gone
TTITLE14=You've Never Been This Far Before
TTITLE15=I'm Not Through Loving You Yet
TTITLE16=Linda On My Mind
TTITLE17=There's A Honky Tonk- Angel
TTITLE18=I Can't Believe She Gives It All To Me
TTITLE19=I See The Want-To in Your Eyes
EXTD=
EXTT0=
EXTT1=
EXTT2=
EXTT3=
EXTT4=
EXTT5=
EXTT6=
EXTT7=
EXTT8=
EXTT9=
EXTT10=
EXTT11=
EXTT12=
EXTT13=
EXTT14=
EXTT15=
EXTT16=
EXTT17=
EXTT18=
EXTT19=
PLAYORDER=
